<svg id="ea453805-8d20-4674-8a08-f10fa128810c" data-name="Layer 1" xmlns="http://www.w3.org/2000/svg" viewBox="0 0 415.35 536.1"><title>company</title><path d="M357.33,17.69H546.1a0,0,0,0,1,0,0V490.29a25.65,25.65,0,0,1-25.65,25.65H383a25.65,25.65,0,0,1-25.65-25.65V17.69a0,0,0,0,1,0,0Z" transform="translate(690 515.94) rotate(180)" style="fill:#2a7c87"/><path d="M273.62,244V517.6a10.1,10.1,0,0,0,10.1,10.09h101a10.1,10.1,0,0,0,10.1-10.09V171a10.1,10.1,0,0,0-16-8.18l-101,73.07A10.12,10.12,0,0,0,273.62,244Z" transform="translate(-213.43 -17.69)" style="fill:#5ebcd0"/><path d="M273.62,244V517.6a10.1,10.1,0,0,0,10.1,10.09h50.5V195L277.8,235.84A10.12,10.12,0,0,0,273.62,244Z" transform="translate(-213.43 -17.69)" style="fill:#509eae"/><path d="M514.52,41.8h0A62.55,62.55,0,0,0,452,104.34v417h125.1v-417A62.54,62.54,0,0,0,514.52,41.8Z" transform="translate(-213.43 -17.69)" style="fill:#5ebcd0"/><path d="M514.52,41.8h0A62.55,62.55,0,0,0,452,104.34v417h62.55Z" transform="translate(-213.43 -17.69)" style="fill:#509eae"/><path d="M609.85,515.94H232.36a18.93,18.93,0,0,0,0,37.86H609.85a18.93,18.93,0,0,0,0-37.86Z" transform="translate(-213.43 -17.69)" style="fill:#858ea4"/><path d="M421.1,515.94H232.36a18.93,18.93,0,0,0,0,37.86H421.1V515.94Z" transform="translate(-213.43 -17.69)" style="fill:#71788a"/><path d="M514.52,164.81a18.94,18.94,0,0,1-18.93-18.93v-15.6a18.93,18.93,0,0,1,37.86,0v15.6A18.93,18.93,0,0,1,514.52,164.81Z" transform="translate(-213.43 -17.69)" style="fill:#c6e5e4"/><path d="M514.52,164.81a18.94,18.94,0,0,1-18.93-18.93v-15.6a18.93,18.93,0,0,1,18.93-18.92Z" transform="translate(-213.43 -17.69)" style="fill:#85cedf"/><path d="M514.52,256.18a18.94,18.94,0,0,1-18.93-18.93v-15.6a18.93,18.93,0,0,1,37.86,0v15.6A18.93,18.93,0,0,1,514.52,256.18Z" transform="translate(-213.43 -17.69)" style="fill:#c6e5e4"/><path d="M514.52,256.18a18.94,18.94,0,0,1-18.93-18.93v-15.6a18.93,18.93,0,0,1,18.93-18.92Z" transform="translate(-213.43 -17.69)" style="fill:#85cedf"/><path d="M514.52,347.54a18.93,18.93,0,0,1-18.93-18.92V313a18.93,18.93,0,0,1,37.86,0v15.6A18.92,18.92,0,0,1,514.52,347.54Z" transform="translate(-213.43 -17.69)" style="fill:#c6e5e4"/><path d="M514.52,347.54a18.93,18.93,0,0,1-18.93-18.92V313a18.94,18.94,0,0,1,18.93-18.93Z" transform="translate(-213.43 -17.69)" style="fill:#85cedf"/><path d="M514.52,438.91A18.93,18.93,0,0,1,495.59,420v-15.6a18.93,18.93,0,0,1,37.86,0V420A18.92,18.92,0,0,1,514.52,438.91Z" transform="translate(-213.43 -17.69)" style="fill:#c6e5e4"/><path d="M514.52,438.91A18.93,18.93,0,0,1,495.59,420v-15.6a18.94,18.94,0,0,1,18.93-18.93Z" transform="translate(-213.43 -17.69)" style="fill:#85cedf"/><path d="M334.22,303.9A18.93,18.93,0,0,1,315.29,285V269.38a18.93,18.93,0,1,1,37.86,0V285A18.92,18.92,0,0,1,334.22,303.9Z" transform="translate(-213.43 -17.69)" style="fill:#c6e5e4"/><path d="M334.22,303.9A18.93,18.93,0,0,1,315.29,285V269.38a18.94,18.94,0,0,1,18.93-18.93Z" transform="translate(-213.43 -17.69)" style="fill:#85cedf"/><path d="M334.22,388.09a18.94,18.94,0,0,1-18.93-18.93v-15.6a18.93,18.93,0,0,1,37.86,0v15.6A18.93,18.93,0,0,1,334.22,388.09Z" transform="translate(-213.43 -17.69)" style="fill:#c6e5e4"/><path d="M334.22,388.09a18.94,18.94,0,0,1-18.93-18.93v-15.6a18.93,18.93,0,0,1,18.93-18.92Z" transform="translate(-213.43 -17.69)" style="fill:#85cedf"/><path d="M334.22,472.27a18.94,18.94,0,0,1-18.93-18.93V437.75a18.93,18.93,0,1,1,37.86,0v15.59A18.93,18.93,0,0,1,334.22,472.27Z" transform="translate(-213.43 -17.69)" style="fill:#c6e5e4"/><path d="M334.22,472.27a18.94,18.94,0,0,1-18.93-18.93V437.75a18.93,18.93,0,0,1,18.93-18.93Z" transform="translate(-213.43 -17.69)" style="fill:#85cedf"/><path d="M420.39,358.28a18.93,18.93,0,0,1-18.93-18.93v-15.6a18.93,18.93,0,1,1,37.85,0v15.6A18.93,18.93,0,0,1,420.39,358.28Z" transform="translate(-213.43 -17.69)" style="fill:#c6e5e4"/><path d="M420.39,465.64a18.93,18.93,0,0,1-18.93-18.93V431.12a18.93,18.93,0,1,1,37.85,0v15.59A18.93,18.93,0,0,1,420.39,465.64Z" transform="translate(-213.43 -17.69)" style="fill:#c6e5e4"/><path d="M420.39,143.55a18.93,18.93,0,0,1-18.93-18.93V109a18.93,18.93,0,1,1,37.85,0v15.6A18.93,18.93,0,0,1,420.39,143.55Z" transform="translate(-213.43 -17.69)" style="fill:#c6e5e4"/><path d="M420.39,250.91A18.93,18.93,0,0,1,401.46,232V216.39a18.93,18.93,0,1,1,37.85,0V232A18.92,18.92,0,0,1,420.39,250.91Z" transform="translate(-213.43 -17.69)" style="fill:#c6e5e4"/><path d="M382.53,90.09A18.92,18.92,0,0,1,363.6,71.17V55.57a18.93,18.93,0,0,1,37.86,0v15.6A18.93,18.93,0,0,1,382.53,90.09Z" transform="translate(-213.43 -17.69)" style="fill:#c6e5e4"/></svg>