<svg id="af171571-d456-4106-9c32-96522e2d94e2" data-name="Layer 1" xmlns="http://www.w3.org/2000/svg" viewBox="0 0 346.72 336.35"><title>go</title><path d="M1105.86,499.76a11,11,0,0,1,15.5-.76l92.75,84.27a11,11,0,0,1,.76,15.52l-33.12,36.61a11,11,0,0,1-15.48.76l-92.77-84.27a11,11,0,0,1-.76-15.52Z" transform="translate(-870.99 -302.65)"/><path d="M877.69,463.86a121.6,121.6,0,1,0,75.07-154.48A121.51,121.51,0,0,0,877.69,463.86Zm35.15-78.4a88.55,88.55,0,1,1-4,67.64A88,88,0,0,1,912.84,385.46Z" transform="translate(-870.99 -302.65)"/></svg>