<svg id="a153a3cc-7fe8-4d07-bfa7-b5d38221d883" data-name="Layer 1" xmlns="http://www.w3.org/2000/svg" viewBox="0 0 394.69 74.88"><title>logo</title><path d="M25.28,0h11A26.47,26.47,0,0,1,62.72,26.47V48.41A26.47,26.47,0,0,1,36.25,74.88h-11a0,0,0,0,1,0,0V0A0,0,0,0,1,25.28,0Z" style="fill:#1d1d1b"/><rect x="143.74" y="261.81" width="7.2" height="24.48" rx="3.6" transform="translate(-261.81 161.19) rotate(-90)" style="fill:#1d1d1b"/><rect x="143.74" y="308.99" width="7.2" height="24.48" rx="3.6" transform="translate(-308.99 208.37) rotate(-90)" style="fill:#1d1d1b"/><path d="M221.29,277.27v17.26H231a2.58,2.58,0,0,1,1.78.56,1.84,1.84,0,0,1,.63,1.43,1.79,1.79,0,0,1-.62,1.41,2.64,2.64,0,0,1-1.79.54h-11.6a3.09,3.09,0,0,1-2.25-.69,3.12,3.12,0,0,1-.69-2.25V277.27a3.16,3.16,0,0,1,.66-2.18,2.21,2.21,0,0,1,1.72-.73,2.28,2.28,0,0,1,1.75.72A3.1,3.1,0,0,1,221.29,277.27Z" transform="translate(-135.1 -260.2)" style="fill:#1d1d1b"/><path d="M247.44,296.39a13.46,13.46,0,0,1-3.1,1.86,8.51,8.51,0,0,1-3.35.63,6.49,6.49,0,0,1-3-.67,5.06,5.06,0,0,1-2-1.82,4.77,4.77,0,0,1-.69-2.49,4.43,4.43,0,0,1,1.15-3.09,5.71,5.71,0,0,1,3.15-1.72l2.08-.43c1.12-.23,2.07-.44,2.86-.63s1.65-.41,2.58-.68a4.64,4.64,0,0,0-.71-2.57,3.14,3.14,0,0,0-2.57-.81,5.31,5.31,0,0,0-2.54.47,4.11,4.11,0,0,0-1.45,1.4,12.77,12.77,0,0,1-.86,1.24,1.38,1.38,0,0,1-1.07.3,1.88,1.88,0,0,1-1.29-.48,1.55,1.55,0,0,1-.54-1.22,3.79,3.79,0,0,1,.82-2.26,5.89,5.89,0,0,1,2.58-1.81,11.44,11.44,0,0,1,4.35-.71,12.47,12.47,0,0,1,4.57.68,4.24,4.24,0,0,1,2.35,2.18,9.44,9.44,0,0,1,.69,3.94c0,1,0,1.92,0,2.64s0,1.52,0,2.41a9,9,0,0,0,.41,2.59,7.79,7.79,0,0,1,.41,1.74,1.62,1.62,0,0,1-.64,1.24,2.12,2.12,0,0,1-1.44.56,2,2,0,0,1-1.34-.64A9.31,9.31,0,0,1,247.44,296.39Zm-.29-6.39a21.44,21.44,0,0,1-2.82.75c-1.24.27-2.09.46-2.57.58a3.58,3.58,0,0,0-1.35.73,1.84,1.84,0,0,0-.65,1.51,2.24,2.24,0,0,0,.76,1.71,2.8,2.8,0,0,0,2,.7,5.16,5.16,0,0,0,2.41-.57,3.87,3.87,0,0,0,1.63-1.48,6.75,6.75,0,0,0,.6-3.3Z" transform="translate(-135.1 -260.2)" style="fill:#1d1d1b"/><path d="M268,286l-8.09,9h8.65a2.28,2.28,0,0,1,1.59.49,1.67,1.67,0,0,1,.53,1.27,1.53,1.53,0,0,1-.52,1.21,2.3,2.3,0,0,1-1.6.47h-12a2.79,2.79,0,0,1-1.89-.55,1.91,1.91,0,0,1-.62-1.5,1.88,1.88,0,0,1,.44-1.14c.29-.38.89-1.09,1.81-2.11l2.64-2.93c.8-.87,1.53-1.69,2.21-2.45s1.24-1.4,1.69-1.93.81-1,1.08-1.36h-6.57a6.64,6.64,0,0,1-2.05-.24c-.47-.16-.7-.59-.7-1.28a1.53,1.53,0,0,1,.53-1.21,2.23,2.23,0,0,1,1.49-.45h10.14a4.5,4.5,0,0,1,2.16.41,1.54,1.54,0,0,1,.75,1.48,2.14,2.14,0,0,1-.14.73,2.83,2.83,0,0,1-.33.63c-.12.16-.28.35-.48.59Z" transform="translate(-135.1 -260.2)" style="fill:#1d1d1b"/><path d="M295.17,288.83v4.55a4.8,4.8,0,0,1-.18,1.45,2.25,2.25,0,0,1-.65,1,6.05,6.05,0,0,1-1.22.85,19.43,19.43,0,0,1-4.14,1.69,16.51,16.51,0,0,1-4.33.54,14.16,14.16,0,0,1-5-.84,10.54,10.54,0,0,1-3.83-2.45,10.71,10.71,0,0,1-2.43-3.88,14.38,14.38,0,0,1-.85-5.09,14.88,14.88,0,0,1,.82-5.06,10.41,10.41,0,0,1,2.43-3.9,10.7,10.7,0,0,1,3.9-2.45,15,15,0,0,1,5.2-.85,13.08,13.08,0,0,1,4.24.64,9.26,9.26,0,0,1,3,1.61,7.19,7.19,0,0,1,1.73,2.05,4.19,4.19,0,0,1,.58,1.93,2,2,0,0,1-.67,1.54,2.22,2.22,0,0,1-1.61.64,2.24,2.24,0,0,1-1.79-.92,19.32,19.32,0,0,0-1.5-2.1,4.81,4.81,0,0,0-1.66-1.2,6.39,6.39,0,0,0-2.66-.48,7.44,7.44,0,0,0-3,.57,6.13,6.13,0,0,0-2.24,1.67,7.48,7.48,0,0,0-1.42,2.67,11.77,11.77,0,0,0-.49,3.51,9.67,9.67,0,0,0,1.91,6.42,6.65,6.65,0,0,0,5.35,2.25,11,11,0,0,0,3.13-.44,15.7,15.7,0,0,0,3-1.24v-3.85h-3.72a4.08,4.08,0,0,1-2-.41,1.46,1.46,0,0,1-.68-1.37,1.68,1.68,0,0,1,.57-1.31,2.21,2.21,0,0,1,1.56-.52h5.45a6.86,6.86,0,0,1,1.7.18,1.9,1.9,0,0,1,1.12.79A3.21,3.21,0,0,1,295.17,288.83Z" transform="translate(-135.1 -260.2)" style="fill:#1d1d1b"/><path d="M301.67,278.87a2.33,2.33,0,0,1-1.58-.56,2,2,0,0,1-.65-1.6,2,2,0,0,1,.67-1.55,2.35,2.35,0,0,1,3.08-.05,2,2,0,0,1,.66,1.6,2,2,0,0,1-.64,1.59A2.26,2.26,0,0,1,301.67,278.87Zm2.18,4.56v12.76a2.87,2.87,0,0,1-.63,2,2.09,2.09,0,0,1-1.6.68,2,2,0,0,1-1.57-.7,2.91,2.91,0,0,1-.61-2V283.56a2.8,2.8,0,0,1,.61-2,2,2,0,0,1,1.57-.66,2.11,2.11,0,0,1,1.6.66A2.57,2.57,0,0,1,303.85,283.43Z" transform="translate(-135.1 -260.2)" style="fill:#1d1d1b"/><path d="M320.51,296.35v-.43a10.61,10.61,0,0,1-1.76,1.65,6.41,6.41,0,0,1-1.87,1,6.83,6.83,0,0,1-2.21.34,6.57,6.57,0,0,1-2.93-.67,6.93,6.93,0,0,1-2.34-1.92,8.73,8.73,0,0,1-1.5-2.93,12.46,12.46,0,0,1-.5-3.64,9.46,9.46,0,0,1,2-6.45,6.71,6.71,0,0,1,5.32-2.31,7.06,7.06,0,0,1,3.21.66,8.69,8.69,0,0,1,2.56,2v-6.52a3.3,3.3,0,0,1,.54-2.05,1.86,1.86,0,0,1,1.54-.7,1.94,1.94,0,0,1,1.55.64,2.88,2.88,0,0,1,.54,1.89v19.46a2.72,2.72,0,0,1-.58,1.9,2,2,0,0,1-1.51.63,1.91,1.91,0,0,1-1.49-.66A2.71,2.71,0,0,1,320.51,296.35Zm-8.68-6.48a7.61,7.61,0,0,0,.55,3.06,4.32,4.32,0,0,0,1.53,1.9,3.81,3.81,0,0,0,2.12.63,4,4,0,0,0,2.13-.6,4.21,4.21,0,0,0,1.53-1.86,7.57,7.57,0,0,0,.58-3.13,7.34,7.34,0,0,0-.58-3,4.54,4.54,0,0,0-1.55-1.94,3.78,3.78,0,0,0-4.31,0,4.4,4.4,0,0,0-1.48,2A7.81,7.81,0,0,0,311.83,289.87Z" transform="translate(-135.1 -260.2)" style="fill:#1d1d1b"/><path d="M341.21,296.35v-.43a11,11,0,0,1-1.76,1.65,6.53,6.53,0,0,1-1.87,1,6.83,6.83,0,0,1-2.21.34,6.61,6.61,0,0,1-2.94-.67,6.8,6.8,0,0,1-2.33-1.92,8.73,8.73,0,0,1-1.5-2.93,12.46,12.46,0,0,1-.51-3.64,9.51,9.51,0,0,1,2-6.45,6.73,6.73,0,0,1,5.32-2.31,7.08,7.08,0,0,1,3.22.66,8.82,8.82,0,0,1,2.56,2v-6.52a3.3,3.3,0,0,1,.54-2.05,1.84,1.84,0,0,1,1.54-.7,2,2,0,0,1,1.55.64,2.88,2.88,0,0,1,.54,1.89v19.46a2.77,2.77,0,0,1-.58,1.9,2,2,0,0,1-1.51.63,1.91,1.91,0,0,1-1.49-.66A2.66,2.66,0,0,1,341.21,296.35Zm-8.69-6.48a7.6,7.6,0,0,0,.56,3.06,4.26,4.26,0,0,0,1.53,1.9,3.81,3.81,0,0,0,2.12.63,3.93,3.93,0,0,0,2.12-.6,4.23,4.23,0,0,0,1.54-1.86,7.58,7.58,0,0,0,.57-3.13,7.35,7.35,0,0,0-.57-3,4.54,4.54,0,0,0-1.55-1.94,3.72,3.72,0,0,0-2.15-.67,3.65,3.65,0,0,0-2.16.68,4.4,4.4,0,0,0-1.48,2A7.81,7.81,0,0,0,332.52,289.87Z" transform="translate(-135.1 -260.2)" style="fill:#1d1d1b"/><path d="M353.88,299.43l.41-1-5.44-13.68a5.26,5.26,0,0,1-.5-1.71,2,2,0,0,1,.29-1.05,2.14,2.14,0,0,1,.8-.78,2.17,2.17,0,0,1,1.06-.29,1.73,1.73,0,0,1,1.44.6,5.63,5.63,0,0,1,.86,1.74l3.73,10.87L360.08,284a16.27,16.27,0,0,1,.76-1.92,2.25,2.25,0,0,1,.71-.94,2.06,2.06,0,0,1,1.08-.24,2,2,0,0,1,1,.26,1.82,1.82,0,0,1,.71.72,1.94,1.94,0,0,1,.25,1q-.06.3-.21.87a10.73,10.73,0,0,1-.35,1.15L358.23,300a17.24,17.24,0,0,1-1.45,3.12,4.94,4.94,0,0,1-1.89,1.74,7,7,0,0,1-3.16.6,7.71,7.71,0,0,1-2.91-.42,1.52,1.52,0,0,1-1-1.53,1.47,1.47,0,0,1,.46-1.17,2,2,0,0,1,1.37-.42,2.61,2.61,0,0,1,.69.1,3.7,3.7,0,0,0,.73.1,2.64,2.64,0,0,0,1.2-.23,2.07,2.07,0,0,0,.78-.78A12,12,0,0,0,353.88,299.43Z" transform="translate(-135.1 -260.2)" style="fill:#1d1d1b"/><path d="M376.13,272.07h20.18a6.43,6.43,0,0,1,3,.75,8.12,8.12,0,0,1,2.5,2,9.39,9.39,0,0,1,1.71,3,10.63,10.63,0,0,1,.64,3.73,9.48,9.48,0,0,1-.61,3.4,9.65,9.65,0,0,1-1.69,2.86,8.31,8.31,0,0,1-2.48,2,6.32,6.32,0,0,1-3,.74h-5.37V287.3h4.75a3.83,3.83,0,0,0,2.1-.56,5.06,5.06,0,0,0,1.45-1.43,6,6,0,0,0,.85-1.89,8,8,0,0,0,.25-1.94,7.35,7.35,0,0,0-.33-2.12,7.1,7.1,0,0,0-.95-2,5.42,5.42,0,0,0-1.5-1.48,3.62,3.62,0,0,0-2-.59H379.71V304h-3.58Z" transform="translate(-135.1 -260.2)" style="fill:#1d1d1b"/><path d="M410.93,304V272.07h3.57v28.67h20.7V304Z" transform="translate(-135.1 -260.2)" style="fill:#1d1d1b"/><path d="M438.36,272.07h3.58V289.7a11.94,11.94,0,0,0,1.43,4.3,14,14,0,0,0,2.81,3.5,12.63,12.63,0,0,0,3.86,2.34,12.74,12.74,0,0,0,9.15,0A12.58,12.58,0,0,0,463,297.5a13.29,13.29,0,0,0,2.79-3.5,12.09,12.09,0,0,0,1.4-4.3V272.07h3.58v16.05a15.37,15.37,0,0,1-1.28,6.23,16.48,16.48,0,0,1-3.45,5.09,16,16,0,0,1-5.13,3.42,16.29,16.29,0,0,1-21.31-8.51,15.37,15.37,0,0,1-1.28-6.23Z" transform="translate(-135.1 -260.2)" style="fill:#1d1d1b"/><path d="M477.3,288a15.38,15.38,0,0,1,1.28-6.26,16.34,16.34,0,0,1,3.45-5.11,16.09,16.09,0,0,1,5.13-3.45,16.35,16.35,0,0,1,11-.59,15.47,15.47,0,0,1,4.14,2,17.33,17.33,0,0,1,3.39,3,16.66,16.66,0,0,1,2.48,3.78l-2.86,1.84a13.51,13.51,0,0,0-2-3.11,14.14,14.14,0,0,0-2.73-2.51,12.63,12.63,0,0,0-3.35-1.66,12.38,12.38,0,0,0-8.71.46,13.48,13.48,0,0,0-4.09,2.79,13.15,13.15,0,0,0-2.76,4.06,11.9,11.9,0,0,0-1,4.83,11.69,11.69,0,0,0,1,4.83,13.41,13.41,0,0,0,2.76,4,13.08,13.08,0,0,0,4.07,2.76,12.47,12.47,0,0,0,8.4.53,13.12,13.12,0,0,0,3.14-1.35,13.67,13.67,0,0,0,2.66-2.07,12,12,0,0,0,2-2.68l2.45,2.5a16.43,16.43,0,0,1-5.7,5.44,16.51,16.51,0,0,1-14.38.79,16.09,16.09,0,0,1-5.13-3.45,16.29,16.29,0,0,1-3.45-5.1A15.41,15.41,0,0,1,477.3,288Zm29.79-.72v3.22H491.81V287.3Z" transform="translate(-135.1 -260.2)" style="fill:#1d1d1b"/><path d="M361,328c0,.18-.07.39-.1.64a11.37,11.37,0,0,1-1.5.27,9.75,9.75,0,0,1-1.25.08,6.22,6.22,0,0,1-2.17-.37,4.79,4.79,0,0,1-1.77-1.09,4.34,4.34,0,0,1-1.08-1.72,6.32,6.32,0,0,1-.34-2.09,7,7,0,0,1,.4-2.36,4.83,4.83,0,0,1,1.18-1.9,4.88,4.88,0,0,1,1.86-1.12,7.3,7.3,0,0,1,2.31-.36c.28,0,.58,0,.9,0s.59.05.79.08.48.09.83.16a5.45,5.45,0,0,0,.07.67,8.91,8.91,0,0,0-1.49-.37,7.11,7.11,0,0,0-1.2-.1,6.3,6.3,0,0,0-1.94.31,4.33,4.33,0,0,0-1.65,1,4.57,4.57,0,0,0-1.09,1.71,5.93,5.93,0,0,0-.38,2.12,6.39,6.39,0,0,0,.31,2,4,4,0,0,0,1,1.59,4.17,4.17,0,0,0,1.52,1,5.35,5.35,0,0,0,1.94.34A9.58,9.58,0,0,0,361,328Z" transform="translate(-135.1 -260.2)" style="fill:#1d1d1b"/><path d="M362.78,328.8q.36-6.54.42-10.69h.65l-.2,3.81-.23,6.88h-.64Z" transform="translate(-135.1 -260.2)" style="fill:#1d1d1b"/><path d="M369.4,320.73a4.81,4.81,0,0,1,1.41.2,3,3,0,0,1,1.2.69,3.13,3.13,0,0,1,.79,1.28,4.94,4.94,0,0,1,.28,1.68,5.89,5.89,0,0,1-.29,1.83,4.35,4.35,0,0,1-.82,1.47,3,3,0,0,1-1.25.83,4.81,4.81,0,0,1-1.53.24,5.08,5.08,0,0,1-1.1-.12,3.32,3.32,0,0,1-1-.44,3.11,3.11,0,0,1-.83-.79,3.4,3.4,0,0,1-.54-1.15,5.36,5.36,0,0,1-.19-1.39,5.56,5.56,0,0,1,.47-2.3,3.17,3.17,0,0,1,1.41-1.54A4.21,4.21,0,0,1,369.4,320.73Zm0,.43a3.47,3.47,0,0,0-1.73.46,2.67,2.67,0,0,0-1.17,1.38,5.41,5.41,0,0,0-.38,2,4.71,4.71,0,0,0,.22,1.47,2.67,2.67,0,0,0,.69,1.16,2.59,2.59,0,0,0,1,.66,3.71,3.71,0,0,0,1.16.19,3.76,3.76,0,0,0,1.31-.23,2.74,2.74,0,0,0,1.08-.76,3.33,3.33,0,0,0,.68-1.31,5.8,5.8,0,0,0,.22-1.64,4.92,4.92,0,0,0-.22-1.51,2.44,2.44,0,0,0-1.7-1.73A3.94,3.94,0,0,0,369.38,321.16Z" transform="translate(-135.1 -260.2)" style="fill:#1d1d1b"/><path d="M378,328.3c0,.16-.07.33-.1.5a5.06,5.06,0,0,1-1.16.15,3.26,3.26,0,0,1-.8-.09,1.14,1.14,0,0,1-.56-.36,1.16,1.16,0,0,1-.29-.56,2.84,2.84,0,0,1-.07-.66v-.2c0-.09,0-.28,0-.58l.26-5.19h-1a3,3,0,0,0,0-.42h1c0-.33.05-.82.06-1.47a4.83,4.83,0,0,0,.52-.1c0,.84-.06,1.37-.06,1.57h2.35c0,.14,0,.28,0,.42h-2.34l-.25,5.37V327a2.22,2.22,0,0,0,.15.95.94.94,0,0,0,.43.43,1.34,1.34,0,0,0,.58.14,3.75,3.75,0,0,0,.45,0A7.78,7.78,0,0,0,378,328.3Z" transform="translate(-135.1 -260.2)" style="fill:#1d1d1b"/><path d="M379.27,328.8l.23-5.11c0-.49.05-1.77.1-3.83l0-1.75h.6l-.21,4.57c.12-.24.22-.44.31-.58a2.45,2.45,0,0,1,.34-.43,3.06,3.06,0,0,1,1-.67,4.89,4.89,0,0,1,.72-.2,5.1,5.1,0,0,1,.89-.07,5.43,5.43,0,0,1,1.29.14,2.71,2.71,0,0,1,1,.49,1.72,1.72,0,0,1,.59.81,2.94,2.94,0,0,1,.17,1c0,.1,0,.25,0,.44s0,.67-.06,1.16l-.13,3.19c0,.2,0,.5,0,.88h-.62c.06-.68.11-1.35.14-2l.11-1.91c0-.59.05-1.1.05-1.52a2.32,2.32,0,0,0-.28-1.22,1.69,1.69,0,0,0-.93-.71,3.93,3.93,0,0,0-1.38-.24,4.49,4.49,0,0,0-1,.11,3.08,3.08,0,0,0-.76.28,2,2,0,0,0-.5.35,2.53,2.53,0,0,0-.44.53,3.94,3.94,0,0,0-.35.78,5.42,5.42,0,0,0-.21,1.08c0,.35-.07,1-.11,2l-.06,2.46h-.61Z" transform="translate(-135.1 -260.2)" style="fill:#1d1d1b"/><path d="M388.51,328.8c.06-.79.13-2.15.2-4.1s.12-3.21.12-3.81h.63c-.08,1-.15,2.34-.22,4.06s-.1,3-.1,3.85h-.63Zm.29-9.91,0-.78h.8l0,.78-.4,0Z" transform="translate(-135.1 -260.2)" style="fill:#1d1d1b"/><path d="M391.39,328.8l.27-4.79.07-2.24c0-.4,0-.7,0-.88h.6l-.1,1.78a4.29,4.29,0,0,1,.29-.55,2.38,2.38,0,0,1,.3-.42,3.84,3.84,0,0,1,.47-.41A3,3,0,0,1,394,321a4.94,4.94,0,0,1,.78-.19,7.13,7.13,0,0,1,.79,0,6,6,0,0,1,1.28.14,2.34,2.34,0,0,1,1,.52,2,2,0,0,1,.56.83,3.4,3.4,0,0,1,.15,1q0,.24,0,.72l-.16,3.56,0,1.28h-.6c0-.65.09-1.28.12-1.87l.11-2c0-.74.06-1.27.06-1.6a2.71,2.71,0,0,0-.15-.93,1.46,1.46,0,0,0-.51-.67,2.49,2.49,0,0,0-.87-.4,4.34,4.34,0,0,0-1-.12,3.79,3.79,0,0,0-1.31.21,2.77,2.77,0,0,0-.95.57,3.11,3.11,0,0,0-.67,1,4,4,0,0,0-.29,1.18,21.13,21.13,0,0,0-.16,2.15c0,1-.05,1.84-.05,2.53h-.63Z" transform="translate(-135.1 -260.2)" style="fill:#1d1d1b"/><path d="M401,331.66a13.81,13.81,0,0,0,1.71.39,8,8,0,0,0,1.23.11,4.08,4.08,0,0,0,1.24-.18,2.71,2.71,0,0,0,.89-.41,1.85,1.85,0,0,0,.51-.54,2.84,2.84,0,0,0,.32-.88A7.63,7.63,0,0,0,407,329c0-.64.06-1.37.08-2.19-.11.25-.2.45-.27.59a2.4,2.4,0,0,1-.32.46,2.43,2.43,0,0,1-.47.43,3.32,3.32,0,0,1-.62.34,4.09,4.09,0,0,1-.77.24,4.31,4.31,0,0,1-.88.09,4.45,4.45,0,0,1-1.35-.19,2.92,2.92,0,0,1-1.11-.63,2.7,2.7,0,0,1-.74-1.15,4.3,4.3,0,0,1-.25-1.48,5.62,5.62,0,0,1,.37-2,4.21,4.21,0,0,1,1.07-1.6,4.1,4.1,0,0,1,1.6-.9,6.9,6.9,0,0,1,2-.27,15.38,15.38,0,0,1,2.6.27l-.08.9c0,.17,0,.4-.05.67l-.18,3.59-.08,3.28a5.84,5.84,0,0,1-.16,1,2.9,2.9,0,0,1-.41.87,2.39,2.39,0,0,1-.69.65,3.19,3.19,0,0,1-1,.42,6.13,6.13,0,0,1-1.55.17q-.63,0-1.23-.06a12.38,12.38,0,0,1-1.41-.26A5.79,5.79,0,0,0,401,331.66Zm6.31-10.29a9.56,9.56,0,0,0-1.19-.17,7.86,7.86,0,0,0-.79,0,6.31,6.31,0,0,0-1.67.21,3.38,3.38,0,0,0-1.4.76,3.8,3.8,0,0,0-1,1.45,5,5,0,0,0-.35,1.84,4,4,0,0,0,.33,1.64,2.23,2.23,0,0,0,1,1.11,3.07,3.07,0,0,0,1.51.37,3.87,3.87,0,0,0,1.05-.13,2.34,2.34,0,0,0,.71-.3,2.93,2.93,0,0,0,.64-.55,4.08,4.08,0,0,0,.54-.81,4.29,4.29,0,0,0,.33-.95,12,12,0,0,0,.18-1.75Z" transform="translate(-135.1 -260.2)" style="fill:#1d1d1b"/><path d="M414,328.8c.1-1.42.19-3.24.27-5.48s.12-4,.12-5.21h6.12c0,.21,0,.39,0,.56l-.62-.06-.85,0h-4l-.16,4.49,2.17,0,2.9,0c0,.16,0,.33,0,.52l-2.95,0c-.35,0-1.05,0-2.1,0l-.16,4.7h4.08l1.4-.06a4,4,0,0,0,0,.56H414Z" transform="translate(-135.1 -260.2)" style="fill:#1d1d1b"/><path d="M427.71,328.16a5.55,5.55,0,0,0-.11.6,9.6,9.6,0,0,1-1.85.19,5.05,5.05,0,0,1-1.53-.22A3,3,0,0,1,423,328a3.06,3.06,0,0,1-.76-1.27,5.3,5.3,0,0,1-.25-1.6,6.05,6.05,0,0,1,.39-2.17,3.42,3.42,0,0,1,1.24-1.64,3.9,3.9,0,0,1,2.3-.59,7,7,0,0,1,2,.28,3.51,3.51,0,0,0,.05.55,11.65,11.65,0,0,0-1.27-.32,5.38,5.38,0,0,0-.85-.08,3.27,3.27,0,0,0-1.46.32,2.84,2.84,0,0,0-1.05.9,3.46,3.46,0,0,0-.59,1.29,5.92,5.92,0,0,0-.18,1.44,5.17,5.17,0,0,0,.2,1.44,2.52,2.52,0,0,0,.62,1.1,2.89,2.89,0,0,0,1.06.64,3.9,3.9,0,0,0,1.32.23,4.82,4.82,0,0,0,.81-.08A9,9,0,0,0,427.71,328.16Z" transform="translate(-135.1 -260.2)" style="fill:#1d1d1b"/><path d="M433.22,320.73a4.71,4.71,0,0,1,1.41.2,2.89,2.89,0,0,1,1.2.69,3.14,3.14,0,0,1,.8,1.28,5.19,5.19,0,0,1,.27,1.68,5.61,5.61,0,0,1-.29,1.83,4,4,0,0,1-.82,1.47,2.9,2.9,0,0,1-1.25.83A4.75,4.75,0,0,1,433,329a5.1,5.1,0,0,1-1.11-.12,3.54,3.54,0,0,1-1-.44,3.26,3.26,0,0,1-.83-.79,3.82,3.82,0,0,1-.54-1.15,5.35,5.35,0,0,1-.18-1.39,5.56,5.56,0,0,1,.47-2.3,3.11,3.11,0,0,1,1.4-1.54A4.27,4.27,0,0,1,433.22,320.73Zm0,.43a3.47,3.47,0,0,0-1.73.46A2.64,2.64,0,0,0,430.3,323a5.4,5.4,0,0,0-.37,2,5,5,0,0,0,.21,1.47,2.87,2.87,0,0,0,.69,1.16,2.66,2.66,0,0,0,1,.66,3.77,3.77,0,0,0,1.17.19,3.7,3.7,0,0,0,1.3-.23,2.67,2.67,0,0,0,1.08-.76,3.35,3.35,0,0,0,.69-1.31,6.19,6.19,0,0,0,.22-1.64,5.25,5.25,0,0,0-.22-1.51,2.58,2.58,0,0,0-.67-1.14,2.54,2.54,0,0,0-1-.59A4,4,0,0,0,433.21,321.16Z" transform="translate(-135.1 -260.2)" style="fill:#1d1d1b"/><path d="M438.57,328.8l.09-1.07c0-.21,0-.43,0-.64l.2-5.22c0-.38,0-.71,0-1h.6l-.08,1.64a6,6,0,0,1,.46-.75,2.42,2.42,0,0,1,.57-.52,2.76,2.76,0,0,1,.81-.39,3.08,3.08,0,0,1,1-.14,3,3,0,0,1,.81.1,2.82,2.82,0,0,1,.65.28,1.86,1.86,0,0,1,.45.37,1.4,1.4,0,0,1,.28.42,3.29,3.29,0,0,1,.19.6l.3-.53a2.93,2.93,0,0,1,.38-.45,2.19,2.19,0,0,1,.57-.41,3.16,3.16,0,0,1,.73-.28,3.31,3.31,0,0,1,.83-.1,3.39,3.39,0,0,1,1.23.22,1.84,1.84,0,0,1,.9.72,2.12,2.12,0,0,1,.31,1.18c0,.25,0,.64-.05,1.16s-.08,1.26-.12,2.22-.07,1.81-.08,2.57H449c0-.64.09-1.41.14-2.3l.11-2.16c0-.54,0-1,0-1.33,0-.18,0-.34,0-.47a1.34,1.34,0,0,0-.11-.39,1.17,1.17,0,0,0-.24-.37,1.68,1.68,0,0,0-.38-.3,1.83,1.83,0,0,0-.53-.2,2.86,2.86,0,0,0-.67-.08,2.61,2.61,0,0,0-.94.16,2.57,2.57,0,0,0-.77.44,2.49,2.49,0,0,0-.57.68,3.75,3.75,0,0,0-.36,1.09,13.74,13.74,0,0,0-.18,2.1l-.08,3.13h-.63q.07-1.08.12-2.1l.09-2c0-.63.05-1.15.05-1.56a2.57,2.57,0,0,0-.11-.89,1.43,1.43,0,0,0-.35-.56,1.85,1.85,0,0,0-.62-.38,2.39,2.39,0,0,0-.82-.14,2.84,2.84,0,0,0-.93.16,2.49,2.49,0,0,0-.79.46,2.74,2.74,0,0,0-.58.72,4.19,4.19,0,0,0-.39,1.14,15.76,15.76,0,0,0-.19,2.17c-.06,1.16-.08,2.14-.08,2.95h-.63Z" transform="translate(-135.1 -260.2)" style="fill:#1d1d1b"/><path d="M451.81,328.8l.09-1.07c0-.21,0-.43,0-.64l.2-5.22c0-.38,0-.71,0-1h.6l-.08,1.64a6,6,0,0,1,.46-.75,2.42,2.42,0,0,1,.57-.52,2.76,2.76,0,0,1,.81-.39,3.31,3.31,0,0,1,1.76,0,2.82,2.82,0,0,1,.65.28,2.13,2.13,0,0,1,.46.37,1.58,1.58,0,0,1,.27.42,3.29,3.29,0,0,1,.19.6l.3-.53a2.93,2.93,0,0,1,.38-.45,2.19,2.19,0,0,1,.57-.41,3.16,3.16,0,0,1,.73-.28,3.31,3.31,0,0,1,.83-.1,3.39,3.39,0,0,1,1.23.22,1.89,1.89,0,0,1,.9.72,2.12,2.12,0,0,1,.31,1.18c0,.25,0,.64,0,1.16s-.08,1.26-.12,2.22-.07,1.81-.08,2.57h-.63c.05-.64.1-1.41.15-2.3l.11-2.16c0-.54,0-1,0-1.33,0-.18,0-.34,0-.47a1.34,1.34,0,0,0-.11-.39,1.17,1.17,0,0,0-.24-.37,1.68,1.68,0,0,0-.38-.3,1.73,1.73,0,0,0-.53-.2,2.86,2.86,0,0,0-.67-.08,2.61,2.61,0,0,0-.94.16,2.45,2.45,0,0,0-.77.44,2.49,2.49,0,0,0-.57.68,4,4,0,0,0-.37,1.09,15.69,15.69,0,0,0-.17,2.1l-.08,3.13H457q.07-1.08.12-2.1l.09-2c0-.63.05-1.15.05-1.56a2.57,2.57,0,0,0-.11-.89,1.43,1.43,0,0,0-.35-.56,1.85,1.85,0,0,0-.62-.38,2.39,2.39,0,0,0-.82-.14,2.84,2.84,0,0,0-.93.16,2.49,2.49,0,0,0-.79.46,2.74,2.74,0,0,0-.58.72,4.19,4.19,0,0,0-.39,1.14,17,17,0,0,0-.2,2.17c-.05,1.16-.07,2.14-.07,2.95h-.63Z" transform="translate(-135.1 -260.2)" style="fill:#1d1d1b"/><path d="M471,328a4.17,4.17,0,0,0-.1.6,9.37,9.37,0,0,1-1.17.26,7.22,7.22,0,0,1-1.05.07,5.06,5.06,0,0,1-1.67-.25,3,3,0,0,1-1.24-.84,3.55,3.55,0,0,1-.73-1.33,5.32,5.32,0,0,1-.22-1.57,5.46,5.46,0,0,1,.37-2,3.45,3.45,0,0,1,3.38-2.2,3.77,3.77,0,0,1,1.59.32,2.42,2.42,0,0,1,1.11,1.06,3.68,3.68,0,0,1,.39,1.75c0,.12,0,.24,0,.36h-6.21c0,.33,0,.59,0,.76a4.92,4.92,0,0,0,.21,1.44,3,3,0,0,0,.67,1.16,2.63,2.63,0,0,0,1.06.7,3.8,3.8,0,0,0,1.31.23A6.62,6.62,0,0,0,471,328Zm-5.48-4.23h5.57a7.19,7.19,0,0,0-.06-.83,2.47,2.47,0,0,0-.21-.59,2,2,0,0,0-.35-.53,2.07,2.07,0,0,0-.49-.38,2.41,2.41,0,0,0-.62-.23,3.38,3.38,0,0,0-.72-.08,3.75,3.75,0,0,0-.82.1,3.14,3.14,0,0,0-.73.26,2.76,2.76,0,0,0-.61.42,2,2,0,0,0-.47.55,3.35,3.35,0,0,0-.29.56C465.68,323.23,465.61,323.48,465.54,323.79Z" transform="translate(-135.1 -260.2)" style="fill:#1d1d1b"/><path d="M473.13,328.8c.06-1.1.12-2.4.18-3.89s.09-2.59.09-3.32v-.7H474l-.07,1.48a4.16,4.16,0,0,1,.49-.81,2.08,2.08,0,0,1,.53-.45,2.34,2.34,0,0,1,.7-.29,3.86,3.86,0,0,1,.84-.09,3,3,0,0,1,.66.07,4.89,4.89,0,0,0,0,.54,3.81,3.81,0,0,0-.91-.14,2.37,2.37,0,0,0-.68.1,2,2,0,0,0-.56.3,2.68,2.68,0,0,0-.89,1.26,4.36,4.36,0,0,0-.22,1.09c-.05.67-.09,1.43-.1,2.29,0,1.15,0,2,0,2.56h-.63Z" transform="translate(-135.1 -260.2)" style="fill:#1d1d1b"/><path d="M483.67,328.16a5.55,5.55,0,0,0-.11.6,9.62,9.62,0,0,1-1.86.19,5,5,0,0,1-1.52-.22A3.09,3.09,0,0,1,479,328a3,3,0,0,1-.75-1.27,5,5,0,0,1-.25-1.6,6.05,6.05,0,0,1,.39-2.17,3.46,3.46,0,0,1,1.23-1.64,3.94,3.94,0,0,1,2.3-.59,7,7,0,0,1,2,.28,3.51,3.51,0,0,0,.05.55,11.17,11.17,0,0,0-1.28-.32,5.27,5.27,0,0,0-.84-.08,3.23,3.23,0,0,0-1.46.32,2.84,2.84,0,0,0-1.05.9,3.64,3.64,0,0,0-.6,1.29,6.44,6.44,0,0,0-.17,1.44,5.17,5.17,0,0,0,.19,1.44,2.44,2.44,0,0,0,.63,1.1,2.89,2.89,0,0,0,1.06.64,3.8,3.8,0,0,0,1.31.23,4.83,4.83,0,0,0,.82-.08A9.94,9.94,0,0,0,483.67,328.16Z" transform="translate(-135.1 -260.2)" style="fill:#1d1d1b"/><path d="M491.47,328q-.06.3-.09.6a9.37,9.37,0,0,1-1.17.26,7.22,7.22,0,0,1-1,.07,5.06,5.06,0,0,1-1.67-.25,3,3,0,0,1-1.24-.84,3.55,3.55,0,0,1-.73-1.33,5.32,5.32,0,0,1-.22-1.57,5.46,5.46,0,0,1,.37-2,3.47,3.47,0,0,1,1.24-1.58,3.52,3.52,0,0,1,2.14-.62,3.77,3.77,0,0,1,1.59.32,2.35,2.35,0,0,1,1.1,1.06,3.56,3.56,0,0,1,.4,1.75c0,.12,0,.24,0,.36h-6.2c0,.33,0,.59,0,.76a4.92,4.92,0,0,0,.22,1.44,3,3,0,0,0,.67,1.16,2.63,2.63,0,0,0,1.06.7,3.8,3.8,0,0,0,1.31.23A6.53,6.53,0,0,0,491.47,328ZM486,323.79h5.58a7.19,7.19,0,0,0-.06-.83,2.47,2.47,0,0,0-.21-.59,2.06,2.06,0,0,0-.36-.53,2,2,0,0,0-.48-.38,2.48,2.48,0,0,0-.63-.23,3.24,3.24,0,0,0-.72-.08,3.66,3.66,0,0,0-.81.1,3.14,3.14,0,0,0-.73.26,2.82,2.82,0,0,0-.62.42,2.45,2.45,0,0,0-.47.55,4.17,4.17,0,0,0-.28.56C486.14,323.23,486.07,323.48,486,323.79Z" transform="translate(-135.1 -260.2)" style="fill:#1d1d1b"/><path d="M497.25,328.48a6.32,6.32,0,0,0,0-.71,6.36,6.36,0,0,0,2.7.71,3.33,3.33,0,0,0,1.26-.23,1.89,1.89,0,0,0,.88-.68,1.81,1.81,0,0,0,.31-1,1.62,1.62,0,0,0-.1-.54,1.78,1.78,0,0,0-.32-.53,8.4,8.4,0,0,0-.64-.7c-.28-.29-.78-.73-1.5-1.33l-.62-.52c-.21-.19-.42-.38-.62-.59a5.59,5.59,0,0,1-.49-.56,3.58,3.58,0,0,1-.3-.48,2.64,2.64,0,0,1-.15-.45,2.24,2.24,0,0,1-.05-.52,2.16,2.16,0,0,1,.34-1.18,2.29,2.29,0,0,1,1-.87,4,4,0,0,1,1.73-.32,10.52,10.52,0,0,1,1.85.21,5.72,5.72,0,0,0,.07.66,7.62,7.62,0,0,0-1.2-.31,5.9,5.9,0,0,0-.91-.08,2.83,2.83,0,0,0-1.28.26,1.89,1.89,0,0,0-.77.68,1.55,1.55,0,0,0-.2,1.38,1.67,1.67,0,0,0,.26.49,5.14,5.14,0,0,0,.47.54c.2.2.43.42.71.67l1.08,1c.45.39.77.66.95.83a5.3,5.3,0,0,1,.53.53,3.32,3.32,0,0,1,.41.56,2.52,2.52,0,0,1,.23.57,2.59,2.59,0,0,1,.07.63,2.2,2.2,0,0,1-1.46,2.14,4.46,4.46,0,0,1-1.63.28,7,7,0,0,1-1.13-.09A11,11,0,0,1,497.25,328.48Z" transform="translate(-135.1 -260.2)" style="fill:#1d1d1b"/><path d="M507.92,328.3a2.77,2.77,0,0,0-.1.5,5.06,5.06,0,0,1-1.16.15,3.2,3.2,0,0,1-.8-.09,1.21,1.21,0,0,1-.57-.36,1.37,1.37,0,0,1-.29-.56,3.51,3.51,0,0,1-.07-.66,1.72,1.72,0,0,1,0-.2c0-.09,0-.28,0-.58l.27-5.19h-1c0-.14,0-.28,0-.42h.95c0-.33.05-.82.07-1.47a4.19,4.19,0,0,0,.51-.1c0,.84-.05,1.37-.05,1.57h2.35a3,3,0,0,0,0,.42h-2.34l-.26,5.37V327a2.22,2.22,0,0,0,.15.95.9.9,0,0,0,.43.43,1.34,1.34,0,0,0,.58.14,3.75,3.75,0,0,0,.45,0A7.78,7.78,0,0,0,507.92,328.3Z" transform="translate(-135.1 -260.2)" style="fill:#1d1d1b"/><path d="M512.77,320.73a4.71,4.71,0,0,1,1.41.2,3,3,0,0,1,1.2.69,3.25,3.25,0,0,1,.8,1.28,5.19,5.19,0,0,1,.27,1.68,5.89,5.89,0,0,1-.29,1.83,4.19,4.19,0,0,1-.82,1.47,3,3,0,0,1-1.25.83,4.79,4.79,0,0,1-1.52.24,5.1,5.1,0,0,1-1.11-.12,3.54,3.54,0,0,1-1-.44,3.26,3.26,0,0,1-.83-.79,3.4,3.4,0,0,1-.54-1.15,5.35,5.35,0,0,1-.18-1.39,5.41,5.41,0,0,1,.47-2.3,3.11,3.11,0,0,1,1.4-1.54A4.24,4.24,0,0,1,512.77,320.73Zm0,.43a3.5,3.5,0,0,0-1.73.46,2.67,2.67,0,0,0-1.17,1.38,5.41,5.41,0,0,0-.38,2,5,5,0,0,0,.22,1.47,2.67,2.67,0,0,0,.69,1.16,2.59,2.59,0,0,0,1,.66,3.74,3.74,0,0,0,2.47,0,2.67,2.67,0,0,0,1.08-.76,3.21,3.21,0,0,0,.68-1.31,5.8,5.8,0,0,0,.22-1.64,5.25,5.25,0,0,0-.21-1.51,2.68,2.68,0,0,0-.67-1.14,2.54,2.54,0,0,0-1-.59A4.06,4.06,0,0,0,512.75,321.16Z" transform="translate(-135.1 -260.2)" style="fill:#1d1d1b"/><path d="M518.12,328.8c.06-1.1.12-2.4.18-3.89s.08-2.59.08-3.32v-.7H519l-.08,1.48a4.67,4.67,0,0,1,.5-.81,2.08,2.08,0,0,1,.53-.45,2.34,2.34,0,0,1,.7-.29,3.86,3.86,0,0,1,.84-.09,2.88,2.88,0,0,1,.65.07,4.89,4.89,0,0,0,0,.54,3.74,3.74,0,0,0-.9-.14,2.32,2.32,0,0,0-.68.1,2.23,2.23,0,0,0-.57.3,2.68,2.68,0,0,0-.51.54,2.77,2.77,0,0,0-.38.72,4.9,4.9,0,0,0-.21,1.09c0,.67-.09,1.43-.1,2.29,0,1.15,0,2,0,2.56h-.63Z" transform="translate(-135.1 -260.2)" style="fill:#1d1d1b"/><path d="M529.13,328a4.17,4.17,0,0,0-.1.6,9.66,9.66,0,0,1-1.16.26,7.45,7.45,0,0,1-1.06.07,5.06,5.06,0,0,1-1.67-.25,3,3,0,0,1-1.24-.84,3.55,3.55,0,0,1-.73-1.33A5.32,5.32,0,0,1,523,325a5.46,5.46,0,0,1,.37-2,3.45,3.45,0,0,1,3.38-2.2,3.77,3.77,0,0,1,1.59.32,2.42,2.42,0,0,1,1.11,1.06,3.68,3.68,0,0,1,.39,1.75c0,.12,0,.24,0,.36h-6.21c0,.33,0,.59,0,.76a4.92,4.92,0,0,0,.21,1.44,3,3,0,0,0,.67,1.16,2.63,2.63,0,0,0,1.06.7,3.8,3.8,0,0,0,1.31.23A6.62,6.62,0,0,0,529.13,328Zm-5.49-4.23h5.58a7.19,7.19,0,0,0-.06-.83,2.47,2.47,0,0,0-.21-.59,2.32,2.32,0,0,0-.35-.53,2.07,2.07,0,0,0-.49-.38,2.41,2.41,0,0,0-.62-.23,3.38,3.38,0,0,0-.72-.08,3.75,3.75,0,0,0-.82.1,3.14,3.14,0,0,0-.73.26,2.76,2.76,0,0,0-.61.42,2.26,2.26,0,0,0-.48.55,4.17,4.17,0,0,0-.28.56C523.79,323.23,523.72,323.48,523.64,323.79Z" transform="translate(-135.1 -260.2)" style="fill:#1d1d1b"/></svg>