<svg id="b58265fa-1a63-49d6-97b5-c2e6c47aed6b" data-name="Layer 1" xmlns="http://www.w3.org/2000/svg" xmlns:xlink="http://www.w3.org/1999/xlink" viewBox="0 0 64 64"><defs><radialGradient id="a0a83ee7-b786-4d41-a114-ecc7581a6abf" cx="31.94" cy="54.57" r="32.48" gradientTransform="translate(0)" gradientUnits="userSpaceOnUse"><stop offset="0" stop-color="#e7ecef"/><stop offset="1" stop-color="#c0c8ce"/></radialGradient><linearGradient id="bb8e37a0-1725-41a7-8c75-73f3a09b9447" x1="31.09" y1="20.75" x2="47.67" y2="84.28" gradientUnits="userSpaceOnUse"><stop offset="0" stop-color="#fff"/><stop offset="1" stop-color="#b7c6cf"/></linearGradient><linearGradient id="b0603fcd-9857-4e0e-b363-39e4350f9059" x1="23.54" y1="1.21" x2="34.98" y2="42.82" gradientUnits="userSpaceOnUse"><stop offset="0" stop-color="#fef9d6"/><stop offset="1"/></linearGradient><linearGradient id="b7161478-62f4-4b6e-8bde-64a768602947" x1="18.16" y1="-4.36" x2="39.45" y2="57.37" gradientUnits="userSpaceOnUse"><stop offset="0" stop-color="#fff"/><stop offset="1"/></linearGradient><linearGradient id="eaf6700c-534f-4383-bbe4-881d4ede80b4" x1="33" y1="53.06" x2="33" y2="15.56" xlink:href="#bb8e37a0-1725-41a7-8c75-73f3a09b9447"/><linearGradient id="e9f49e09-16e8-445e-b707-6d173160c510" x1="33" y1="53.06" x2="33" y2="15.56" xlink:href="#bb8e37a0-1725-41a7-8c75-73f3a09b9447"/><symbol id="bded820d-557f-4293-8f7f-f1eb10d6f42c" data-name="User - Grey" viewBox="0 0 64 64"><circle cx="32" cy="32" r="31.5" style="fill:url(#a0a83ee7-b786-4d41-a114-ecc7581a6abf)"/><path d="M32,1A31,31,0,1,1,1,32,31,31,0,0,1,32,1m0-1A32,32,0,1,0,64,32,32,32,0,0,0,32,0Z" style="fill:#8b99a0"/><g style="opacity:0.8;mix-blend-mode:multiply"><path d="M53.4,9.6A31,31,0,0,1,9.6,53.4,31,31,0,1,0,53.4,9.6Z" style="fill:url(#bb8e37a0-1725-41a7-8c75-73f3a09b9447)"/></g><g style="mix-blend-mode:screen"><path d="M24.36,37.7C35.23,28.34,49.3,19.61,61.43,26.2A30,30,0,1,0,4.23,43.33C9,44.53,16.39,44.56,24.36,37.7Z" style="fill:url(#b0603fcd-9857-4e0e-b363-39e4350f9059)"/></g><g style="mix-blend-mode:screen"><path d="M4,34A30,30,0,0,1,54.18,11.82,30,30,0,1,0,11.82,54.18,29.9,29.9,0,0,1,4,34Z" style="fill:url(#b7161478-62f4-4b6e-8bde-64a768602947)"/></g><g style="opacity:0.8;mix-blend-mode:multiply"><path d="M33,18.11a8.32,8.32,0,1,1-8.31,8.32A8.32,8.32,0,0,1,33,18.11" style="opacity:0.8;mix-blend-mode:multiply;fill:url(#eaf6700c-534f-4383-bbe4-881d4ede80b4)"/><path d="M39.79,34a10.14,10.14,0,0,1-13.58,0A15.75,15.75,0,0,0,18,47.89H48A15.75,15.75,0,0,0,39.79,34Z" style="opacity:0.8;mix-blend-mode:multiply;fill:url(#e9f49e09-16e8-445e-b707-6d173160c510)"/></g><path d="M32,17.11a8.32,8.32,0,1,1-8.32,8.32A8.33,8.33,0,0,1,32,17.11"/><path d="M38.79,33a10.17,10.17,0,0,1-13.58,0A15.75,15.75,0,0,0,17,46.89H47A15.74,15.74,0,0,0,38.79,33Z"/></symbol></defs><title>pay-profile</title><use width="64" height="64" xlink:href="#bded820d-557f-4293-8f7f-f1eb10d6f42c"/></svg>