<svg id="e6be8923-d0a4-47ea-ab67-4ab114c51d5e" data-name="Layer 1" xmlns="http://www.w3.org/2000/svg" xmlns:xlink="http://www.w3.org/1999/xlink" viewBox="0 0 482.36 249.51"><defs><clipPath id="f4f68877-4da6-46d8-8880-3a729eed6239" transform="translate(-188.51 -185.45)"><rect x="188.51" y="351.55" width="130.7" height="82.57" rx="4.43" style="fill:none"/></clipPath><clipPath id="af992bf1-db66-41fc-8441-6d90bc5da766" transform="translate(-188.51 -185.45)"><path d="M582.35,390.6H565.63v7h9.64c-.89,4.41-4.64,7-9.64,7a10.59,10.59,0,0,1,0-21.18,10.15,10.15,0,0,1,6.6,2.37l5.24-5.23A17.64,17.64,0,0,0,565.63,376a18,18,0,1,0,0,35.93h0c9,0,17.13-6.54,17.13-18A15.56,15.56,0,0,0,582.35,390.6Z" style="fill:none"/></clipPath></defs><title>payment</title><g id="a3901d91-2c69-402c-9fe3-a4663480e356" data-name="Card"><g style="clip-path:url(#f4f68877-4da6-46d8-8880-3a729eed6239)"><rect y="166.49" width="130.7" height="83.02" style="fill:#fff"/><rect x="2.18" y="236.02" width="126.34" height="11.33" style="fill:#f7b70b"/><rect x="2.18" y="168.66" width="126.34" height="11.33" style="fill:#282f67"/></g></g><path id="b9f2cc17-1b0a-496e-8f49-6223c716279b" data-name="Mark" d="M241.26,377.4l-13,31.13H219.7l-6.43-24.85a3.38,3.38,0,0,0-1.91-2.73,33.72,33.72,0,0,0-7.94-2.65l.19-.9h13.7a3.76,3.76,0,0,1,3.72,3.17l3.39,18,8.38-21.19Zm33.36,21c0-8.22-11.36-8.68-11.28-12.35,0-1.11,1.09-2.3,3.41-2.6a15.22,15.22,0,0,1,7.95,1.39l1.41-6.61a21.75,21.75,0,0,0-7.54-1.37c-8,0-13.56,4.23-13.61,10.29-.05,4.48,4,7,7,8.47s4.2,2.51,4.18,3.87c0,2.09-2.5,3-4.82,3.05a16.88,16.88,0,0,1-8.27-2l-1.46,6.83a24.59,24.59,0,0,0,8.95,1.65c8.47,0,14-4.18,14-10.65m21,10.16h7.45l-6.51-31.13h-6.87a3.64,3.64,0,0,0-3.43,2.28L274.2,408.53h8.46l1.68-4.65h10.33Zm-9-11,4.24-11.69,2.44,11.69Zm-33.89-20.1-6.66,31.13h-8.05l6.66-31.13Z" transform="translate(-188.51 -185.45)" style="fill:#282f67"/><path id="ba9bd0c9-7b93-4718-a09d-c445db111cb5" data-name="Card Shape" d="M482.4,432.13h-116a4.22,4.22,0,0,1-4.21-4.21V357.75a4.22,4.22,0,0,1,4.21-4.21h116a4.22,4.22,0,0,1,4.21,4.21v70.17A4.22,4.22,0,0,1,482.4,432.13Z" transform="translate(-188.51 -185.45)" style="fill:#010202"/><g id="fe5099a6-115a-400c-97cd-68974934a75c" data-name="Mark"><path d="M397.14,425.58v-4.45a2.58,2.58,0,0,0-2.72-2.79,2.75,2.75,0,0,0-2.48,1.26,2.58,2.58,0,0,0-2.33-1.26,2.43,2.43,0,0,0-2.13,1v-.86h-1.41v7.06h1.43v-4.05a1.69,1.69,0,0,1,1.79-1.87c1,0,1.59.66,1.59,1.86v4.06h1.43v-4.05a1.71,1.71,0,0,1,1.79-1.88c1,0,1.61.67,1.61,1.87v4.05h1.43Zm23-7.06h-2.57v-2.14h-1.43v2.14h-1.49v1.28h1.49v3.34c0,1.64.57,2.61,2.39,2.61a3.62,3.62,0,0,0,1.92-.54L420,424a2.8,2.8,0,0,1-1.36.4c-.77,0-1.08-.47-1.08-1.18V419.8h2.57Zm13.09-.18a2.2,2.2,0,0,0-1.92,1v-.86h-1.4v7.06h1.42v-4c0-1.16.56-1.91,1.56-1.91a2.53,2.53,0,0,1,1,.17l.48-1.33a3.4,3.4,0,0,0-1.1-.19Zm-19.79.74a5.27,5.27,0,0,0-2.88-.74c-1.79,0-2.88.84-2.88,2.25,0,1.15.8,1.84,2.38,2.06l.72.11c.84.11,1.3.41,1.3.81s-.62.9-1.67.9a3.66,3.66,0,0,1-2.35-.74l-.72,1.11a5.24,5.24,0,0,0,3.06.91c2,0,3.15-.94,3.15-2.29s-.85-1.87-2.4-2.09l-.73-.11c-.66-.08-1.25-.29-1.25-.76s.56-.87,1.4-.87a4.63,4.63,0,0,1,2.2.6Zm21.4,3a3.51,3.51,0,0,0,3.71,3.7,3.68,3.68,0,0,0,2.54-.84l-.74-1.11a3.07,3.07,0,0,1-1.85.64,2.4,2.4,0,0,1,0-4.78,3.13,3.13,0,0,1,1.85.63l.74-1.11a3.73,3.73,0,0,0-2.54-.84,3.52,3.52,0,0,0-3.71,3.71Zm-9.92-3.71a3.41,3.41,0,0,0-3.48,3.69,3.46,3.46,0,0,0,3.59,3.72,4.26,4.26,0,0,0,2.89-1l-.75-1a3.39,3.39,0,0,1-2.06.73,2.08,2.08,0,0,1-2.17-1.83h5.27a5.54,5.54,0,0,0,0-.59c0-2.2-1.34-3.69-3.32-3.69Zm0,1.32a1.79,1.79,0,0,1,1.86,1.78h-3.81a1.89,1.89,0,0,1,1.95-1.78Zm-19.1,2.39v-3.53h-1.42v.86a2.78,2.78,0,0,0-2.29-1,3.71,3.71,0,0,0,0,7.41,2.81,2.81,0,0,0,2.29-1v.86h1.42Zm-5.71,0a2.21,2.21,0,0,1,2.2-2.39,2.4,2.4,0,0,1,0,4.78,2.21,2.21,0,0,1-2.2-2.39Zm54.47-3.71a2.2,2.2,0,0,0-1.92,1v-.86h-1.4v7.06h1.42v-4c0-1.16.56-1.91,1.56-1.91a2.53,2.53,0,0,1,1,.17l.47-1.33a3.34,3.34,0,0,0-1.09-.19Zm11.37,6.21a.67.67,0,0,1,.28.06.65.65,0,0,1,.23.15.71.71,0,0,1,.15.22.65.65,0,0,1,.05.27.59.59,0,0,1-.05.27.67.67,0,0,1-.38.38.81.81,0,0,1-.56,0,.67.67,0,0,1-.38-.38.6.6,0,0,1-.06-.27.66.66,0,0,1,.06-.27.86.86,0,0,1,.15-.22.57.57,0,0,1,.23-.15A.67.67,0,0,1,465.92,424.55Zm0,1.25a.65.65,0,0,0,.21,0,.43.43,0,0,0,.17-.12.66.66,0,0,0,.12-.17.54.54,0,0,0,0-.22.52.52,0,0,0,0-.21.61.61,0,0,0-.29-.29.57.57,0,0,0-.42,0,.57.57,0,0,0-.18.12.34.34,0,0,0-.11.17.54.54,0,0,0-.05.21.54.54,0,0,0,.05.22.45.45,0,0,0,.11.17.57.57,0,0,0,.18.12A.65.65,0,0,0,465.92,425.8Zm0-.88a.3.3,0,0,1,.2.06.2.2,0,0,1,.06.15.17.17,0,0,1-.05.14.34.34,0,0,1-.15.06l.21.25h-.17l-.2-.25h-.06v.25h-.14v-.65h.3Zm-.16.13v.17H466l.09,0a.09.09,0,0,0,0-.07.06.06,0,0,0,0-.06s-.05,0-.09,0Zm-16.68-3v-3.53H447.7v.86a2.78,2.78,0,0,0-2.29-1,3.71,3.71,0,0,0,0,7.41,2.81,2.81,0,0,0,2.29-1v.86h1.42Zm-5.72,0a2.21,2.21,0,0,1,2.2-2.39,2.4,2.4,0,0,1,0,4.78,2.21,2.21,0,0,1-2.2-2.39Zm20,0v-6.37H462v3.7a2.8,2.8,0,0,0-2.29-1,3.71,3.71,0,0,0,0,7.41,2.82,2.82,0,0,0,2.29-1v.86h1.41Zm-5.71,0a2.21,2.21,0,0,1,2.2-2.39,2.4,2.4,0,0,1,0,4.78A2.21,2.21,0,0,1,457.65,422.05Z" transform="translate(-188.51 -185.45)" style="fill:#fff"/><rect x="223.27" y="179.37" width="25.55" height="41.73" style="fill:#ec6226"/><path d="M414.43,385.69a26.5,26.5,0,0,1,10.13-20.87,26.55,26.55,0,1,0,0,41.73A26.49,26.49,0,0,1,414.43,385.69Z" transform="translate(-188.51 -185.45)" style="fill:#e52328"/><path d="M465,402.13v-.85h.35v-.18h-.88v.18h.34v.85Zm1.71,0v-1h-.27l-.31.71-.31-.71h-.27v1h.19v-.77l.29.67h.2l.29-.68v.78Z" transform="translate(-188.51 -185.45)" style="fill:#f59e22"/><path d="M467.5,385.69a26.53,26.53,0,0,1-42.94,20.86,26.54,26.54,0,0,0,0-41.73,26.54,26.54,0,0,1,42.94,20.87Z" transform="translate(-188.51 -185.45)" style="fill:#f59e22"/></g><g id="a6315d61-31d9-4f84-ba51-43b018176b0b" data-name="Card"><path d="M524,433.14H668.32a2.58,2.58,0,0,0,2.56-2.56v-75.5a2.58,2.58,0,0,0-2.56-2.55H524a2.54,2.54,0,0,0-2.55,2.52v75.59a2.52,2.52,0,0,0,2.55,2.5Z" transform="translate(-188.51 -185.45)" style="fill:#7f8080;opacity:0.5;isolation:isolate"/><path d="M524.1,353.48H668.38a1.66,1.66,0,0,1,1.66,1.66h0v75.38a1.66,1.66,0,0,1-1.66,1.67H524.1a1.66,1.66,0,0,1-1.66-1.67h0V355.14a1.66,1.66,0,0,1,1.66-1.66Z" transform="translate(-188.51 -185.45)" style="fill:#7f8080"/><path d="M668.14,431.3H524.22a.82.82,0,0,1-.83-.8V355.26a.82.82,0,0,1,.8-.83H668.14a.82.82,0,0,1,.83.8v75.18a.83.83,0,0,1-.76.89Z" transform="translate(-188.51 -185.45)" style="fill:#fff"/></g><g id="b73707a5-4d8a-444f-b01d-e9f86708bffd" data-name="Mark"><g id="a96adad6-74cf-43e8-a54e-472829745521" data-name="G"><g style="clip-path:url(#af992bf1-db66-41fc-8441-6d90bc5da766)"><path d="M546.06,404.53V383.29l13.86,10.59Z" transform="translate(-188.51 -185.45)" style="fill:#fbbc0c"/></g><g style="clip-path:url(#af992bf1-db66-41fc-8441-6d90bc5da766)"><path d="M546.06,383.29l13.86,10.59,5.71-5,19.57-3.16V374.3H546.06Z" transform="translate(-188.51 -185.45)" style="fill:#e84436"/></g><g style="clip-path:url(#af992bf1-db66-41fc-8441-6d90bc5da766)"><path d="M546.06,404.53l24.45-18.75,6.42.84,8.21-12.26v39.15H546.06Z" transform="translate(-188.51 -185.45)" style="fill:#32a853"/></g><g style="clip-path:url(#af992bf1-db66-41fc-8441-6d90bc5da766)"><path d="M585.2,413.45l-25.28-19.57-3.27-2.44,28.55-8.15Z" transform="translate(-188.51 -185.45)" style="fill:#517cbe"/></g></g><g id="b502eb22-f7cd-4d8a-8ed2-a34b116be78d" data-name="Pay"><path d="M602.81,396.2v7.43h-3.27V384.06h7.68a7.09,7.09,0,0,1,5,1.66,5.6,5.6,0,0,1,1.85,4.41,5.47,5.47,0,0,1-1.85,4.4,7.18,7.18,0,0,1-5,1.67Zm0-2.62h4.41a3.22,3.22,0,0,0,3.63-3.39,3.29,3.29,0,0,0-3.05-3.52,2.81,2.81,0,0,0-.58,0h-4.41Z" transform="translate(-188.51 -185.45)" style="fill:#767676"/><path d="M625.6,403.63a7.7,7.7,0,0,1-.3-1.07l-.17-1.07a6.28,6.28,0,0,1-1.79,1.73,4.38,4.38,0,0,1-2.44.71,5,5,0,0,1-3.51-1.19,4.17,4.17,0,0,1-1.19-3.21,3.69,3.69,0,0,1,1.67-3.27,8.1,8.1,0,0,1,4.7-1.19h2.56v-1.31a2.46,2.46,0,0,0-.66-1.79,3.19,3.19,0,0,0-3.69-.12,1.78,1.78,0,0,0-.65,1.37H617v-.06a3.68,3.68,0,0,1,1.55-3,6.44,6.44,0,0,1,4.29-1.31,5.93,5.93,0,0,1,4.1,1.31,4.37,4.37,0,0,1,1.55,3.69v6.48a16.76,16.76,0,0,0,.12,1.73,8.17,8.17,0,0,0,.41,1.6Zm-4-2.32a3.9,3.9,0,0,0,2.2-.59,3.35,3.35,0,0,0,1.31-1.43v-2.14h-2.62a3.29,3.29,0,0,0-2.26.71,2.19,2.19,0,0,0-.84,1.67,1.71,1.71,0,0,0,.54,1.31A3.08,3.08,0,0,0,621.56,401.31Z" transform="translate(-188.51 -185.45)" style="fill:#767676"/><path d="M636.43,397.8l.3,1.43h.06L640,389.06h3.57l-6,16.77a7.46,7.46,0,0,1-1.61,2.62,3.81,3.81,0,0,1-3,1.07,4.39,4.39,0,0,1-.89-.06l-.9-.18.36-2.55a1.32,1.32,0,0,1,.48.06,1.24,1.24,0,0,0,.47,0,1.78,1.78,0,0,0,1.43-.6,5.44,5.44,0,0,0,.89-1.43l.54-1.31-5.3-14.39h3.57Z" transform="translate(-188.51 -185.45)" style="fill:#767676"/></g></g><path d="M511.86,185.45H347.53A13.51,13.51,0,0,0,334,198.94v95.89a13.51,13.51,0,0,0,13.49,13.49H511.86a13.51,13.51,0,0,0,13.49-13.49V198.94A13.51,13.51,0,0,0,511.86,185.45Z" transform="translate(-188.51 -185.45)" style="fill:#fff"/><path d="M375.34,227.1a14,14,0,0,0-8.06-2.12H354.44a1.52,1.52,0,0,0-1.69,1.52l-5.21,32.74a1,1,0,0,0,.24.88,1,1,0,0,0,.8.4h6.1a1.55,1.55,0,0,0,1.76-1.52l1.45-8.83a1.54,1.54,0,0,1,.56-1,2.44,2.44,0,0,1,1.2-.52,8.47,8.47,0,0,1,1.37-.12,14.91,14.91,0,0,1,1.52.08c.59.05,1,.08,1.13.08q6.9,0,10.83-3.89t3.93-10.8q0-4.72-3.09-6.86Zm-6.62,9.83c-.27,1.88-1,3.11-2.08,3.69a10.59,10.59,0,0,1-4.82.89l-2.65.08,1.37-8.59a1,1,0,0,1,1-.88h1.53a9,9,0,0,1,4.65.92c1,.62,1.28,1.91,1,3.89Z" transform="translate(-188.51 -185.45)" style="fill:#223a78"/><path d="M510.82,225h-5.93a1,1,0,0,0-1.05.88l-5.21,33.38-.08.16a1.09,1.09,0,0,0,.32.76,1,1,0,0,0,.8.36H505a1.51,1.51,0,0,0,1.68-1.52l5.22-32.82v-.08c0-.75-.35-1.12-1.05-1.12Z" transform="translate(-188.51 -185.45)" style="fill:#169bd8"/><path d="M439.09,237.9a1.14,1.14,0,0,0-.32-.76.92.92,0,0,0-.72-.37h-6.18a1.68,1.68,0,0,0-1.44.81l-8.51,12.51-3.53-12a1.69,1.69,0,0,0-1.77-1.29h-6a1,1,0,0,0-.73.37,1.14,1.14,0,0,0-.32.76c0,.1.53,1.68,1.57,4.73s2.16,6.34,3.37,9.87,1.83,5.4,1.88,5.62q-6.57,9-6.58,9.63a.93.93,0,0,0,1.05,1H417a1.7,1.7,0,0,0,1.44-.8l20.46-29.53a.77.77,0,0,0,.16-.56Z" transform="translate(-188.51 -185.45)" style="fill:#223a78"/><path d="M496.62,236.77h-6.09c-.75,0-1.21.89-1.37,2.65q-2.09-3.21-7.62-3.21a13,13,0,0,0-9.83,4.34,14.41,14.41,0,0,0-4,10.19,10.26,10.26,0,0,0,2.77,7.54,9.94,9.94,0,0,0,7.42,2.81,12.7,12.7,0,0,0,4.73-1,9.35,9.35,0,0,0,3.77-2.56,6.1,6.1,0,0,1-.16.72,4.9,4.9,0,0,0-.16,1c0,.86.35,1.28,1.05,1.28h5.53a1.61,1.61,0,0,0,1.77-1.52l3.29-20.94a1.12,1.12,0,0,0-.24-.89,1,1,0,0,0-.81-.4Zm-10.47,15.81a6.78,6.78,0,0,1-4.93,2,5.44,5.44,0,0,1-3.77-1.29,4.45,4.45,0,0,1-1.45-3.53,6.86,6.86,0,0,1,2-5,6.65,6.65,0,0,1,5-2,5.36,5.36,0,0,1,3.73,1.33,4.64,4.64,0,0,1,1.49,3.65,6.58,6.58,0,0,1-2.05,4.89Z" transform="translate(-188.51 -185.45)" style="fill:#169bd8"/><path d="M405.47,236.77h-6.1c-.75,0-1.2.89-1.36,2.65q-2.17-3.21-7.62-3.21a13,13,0,0,0-9.83,4.34,14.38,14.38,0,0,0-4.06,10.19,10.3,10.3,0,0,0,2.77,7.54,10,10,0,0,0,7.42,2.81,12.6,12.6,0,0,0,4.66-1,10.11,10.11,0,0,0,3.85-2.56,5.52,5.52,0,0,0-.32,1.68c0,.86.35,1.28,1,1.28h5.54a1.61,1.61,0,0,0,1.76-1.52l3.29-20.94a1.05,1.05,0,0,0-.24-.89,1,1,0,0,0-.8-.4ZM395,252.62a7,7,0,0,1-5,2,5.31,5.31,0,0,1-3.74-1.29,4.55,4.55,0,0,1-1.4-3.53,6.86,6.86,0,0,1,2-5,6.65,6.65,0,0,1,5-2,5.36,5.36,0,0,1,3.73,1.33,4.64,4.64,0,0,1,1.49,3.65,6.56,6.56,0,0,1-2.05,4.93Z" transform="translate(-188.51 -185.45)" style="fill:#223a78"/><path d="M466.49,227.1a14,14,0,0,0-8.06-2.12H445.67a1.55,1.55,0,0,0-1.76,1.52l-5.22,32.74a1.1,1.1,0,0,0,.24.88,1,1,0,0,0,.8.4h6.58a1.28,1.28,0,0,0,1.29-1l1.44-9.31a1.54,1.54,0,0,1,.56-1,2.47,2.47,0,0,1,1.21-.52,8.26,8.26,0,0,1,1.36-.12,15.09,15.09,0,0,1,1.53.08c.58.05,1,.08,1.12.08q6.9,0,10.83-3.89t3.93-10.8q0-4.72-3.09-6.86Zm-8.22,13.2a9.4,9.4,0,0,1-5.3,1.21l-2.56.08,1.36-8.59a1,1,0,0,1,1-.88h1.45a19.07,19.07,0,0,1,2.81.16,4,4,0,0,1,2,1,3.09,3.09,0,0,1,1,2.45C460,238,459.45,239.5,458.27,240.3Z" transform="translate(-188.51 -185.45)" style="fill:#169bd8"/></svg>