<svg id="e674af5b-2832-421b-a92a-40711fc03429" data-name="Layer 1" xmlns="http://www.w3.org/2000/svg" xmlns:xlink="http://www.w3.org/1999/xlink" viewBox="0 0 37.99 64"><defs><symbol id="f05bca71-d633-4dbe-b377-44514051e11e" data-name="Phone" viewBox="0 0 37.99 64"><path d="M28,8H12.44V3.5a3.5,3.5,0,1,0-7,0V9.13A10,10,0,0,0,0,18V36.7A100.17,100.17,0,0,0,2,55.35C3.1,60.11,8.5,64,14,64H24c5.5,0,10.9-4,12-8.89a104.24,104.24,0,0,0,2-18.9V18A10,10,0,0,0,28,8ZM19,56.38a3.94,3.94,0,1,1,3.93-3.94A3.94,3.94,0,0,1,19,56.38ZM31.29,31.07a2,2,0,0,1-2,2H8.7a2,2,0,0,1-2-2V18.54a2,2,0,0,1,2-2H29.29a2,2,0,0,1,2,2Z" style="fill:#fff"/></symbol></defs><title>phone</title><use width="37.99" height="64" xlink:href="#f05bca71-d633-4dbe-b377-44514051e11e"/></svg>