<svg id="b8b2a83e-b10b-4e92-b53a-67c9a254388b" data-name="Layer 1" xmlns="http://www.w3.org/2000/svg" viewBox="0 0 16 15"><title>taxi</title><path d="M14.86,7.05,13.22,3a1.5,1.5,0,0,0-1.4-1H11V.5a.5.5,0,0,0-.5-.5h-5A.5.5,0,0,0,5,.5V2H4.18a1.5,1.5,0,0,0-1.4.94L1.14,7A1.51,1.51,0,0,0,0,8.5v4a.5.5,0,0,0,.5.5H1v1.5a.5.5,0,0,0,.5.5h2a.5.5,0,0,0,.5-.5V13h8v1.5a.5.5,0,0,0,.5.5h2a.5.5,0,0,0,.5-.5V13h.5a.5.5,0,0,0,.5-.5v-4A1.49,1.49,0,0,0,14.86,7.05ZM3,11a1,1,0,1,1,1-1A1,1,0,0,1,3,11Zm7.81-1.11-1.25,1a.51.51,0,0,1-.31.11H6.75a.51.51,0,0,1-.31-.11l-1.25-1A.5.5,0,0,1,5.5,9h5a.5.5,0,0,1,.31.89ZM2.24,7,3.71,3.31A.5.5,0,0,1,4.18,3h7.64a.5.5,0,0,1,.47.31L13.76,7ZM13,11a1,1,0,1,1,1-1A1,1,0,0,1,13,11Z" transform="translate(0)" style="fill:#0e2228"/></svg>